[2026-03-04T04:53:08.403Z] Pipeline started.
[2026-03-04T04:53:09.152Z] Downloading YouTube: https://youtube.com/shorts/sbqu-Bw61Rs?si=Nn4xez_KJv-rjCSm
[2026-03-04T04:53:28.481Z] ElevenLabs TTS seg 0 [21m00Tcm4TlvDq8ikWAM]: "Yaşam tarzını değiştirebilir misin?"
[2026-03-04T04:53:30.099Z] Seg 0 done (38914 bytes) ✅
[2026-03-04T04:53:30.214Z] Stretching seg 0: 2.40s→1.20s (rate=2.00)
[2026-03-04T04:53:30.689Z] ElevenLabs TTS seg 1 [2EiwWnXFnvU5JabPnv8n]: "Gerçekten pahalı giysiler alıyormuş gibi görünmüyo"
[2026-03-04T04:53:32.156Z] Seg 1 done (52288 bytes) ✅
[2026-03-04T04:53:32.293Z] Stretching seg 1: 3.24s→2.80s (rate=1.16)
[2026-03-04T04:53:32.997Z] ElevenLabs TTS seg 2 [21m00Tcm4TlvDq8ikWAM]: "Hayır, gerçekten pahalı giysiler almıyorum."
[2026-03-04T04:53:34.108Z] Seg 2 done (39750 bytes) ✅
[2026-03-04T04:53:34.287Z] Stretching seg 2: 2.46s→2.20s (rate=1.12)
[2026-03-04T04:53:34.863Z] ElevenLabs TTS seg 3 [2EiwWnXFnvU5JabPnv8n]: "Şeyler alıyormusun? Alıyormusun gibi..."
[2026-03-04T04:53:36.173Z] Seg 3 done (40586 bytes) ✅
[2026-03-04T04:53:36.341Z] Stretching seg 3: 2.51s→2.80s (rate=0.90)
[2026-03-04T04:53:36.901Z] ElevenLabs TTS seg 4 [21m00Tcm4TlvDq8ikWAM]: "Hayır, gibi, bir yatak odalı küçük bir dairem var,"
[2026-03-04T04:53:38.355Z] Seg 4 done (87397 bytes) ✅
[2026-03-04T04:53:38.529Z] Stretching seg 4: 5.43s→4.70s (rate=1.16)
[2026-03-04T04:53:39.249Z] ElevenLabs TTS seg 5 [21m00Tcm4TlvDq8ikWAM]: "Orada yaşıyorum."
[2026-03-04T04:53:40.232Z] Seg 5 done (18852 bytes) ✅
[2026-03-04T04:53:40.465Z] Stretching seg 5: 1.15s→1.60s (rate=0.72)
[2026-03-04T04:53:40.945Z] Running FFmpeg: C:\Users\fullm\Downloads\dubverse-saas\backend\node_modules\ffmpeg-static\ffmpeg.exe -i C:\Users\fullm\Downloads\dubverse-saas\tmp\uploads\561e7c8d-22c9-42e9-8f14-93bc3e2cdf10\audio.mp3 -i C:\Users\fullm\Downloads\dubverse-saas\tmp\uploads\561e7c8d-22c9-42e9-8f14-93bc3e2cdf10\segments\seg_0.mp3 -i C:\Users\fullm\Downloads\dubverse-saas\tmp\uploads\561e7c8d-22c9-42e9-8f14-93bc3e2cdf10\segments\seg_1.mp3 -i C:\Users\fullm\Downloads\dubverse-saas\tmp\uploads\561e7c8d-22c9-42e9-8f14-93bc3e2cdf10\segments\seg_2.mp3 -i C:\Users\fullm\Downloads\dubverse-saas\tmp\uploads\561e7c8d-22c9-42e9-8f14-93bc3e2cdf10\segments\seg_3.mp3 -i C:\Users\fullm\Downloads\dubverse-saas\tmp\uploads\561e7c8d-22c9-42e9-8f14-93bc3e2cdf10\segments\seg_4.mp3 -i C:\Users\fullm\Downloads\dubverse-saas\tmp\uploads\561e7c8d-22c9-42e9-8f14-93bc3e2cdf10\segments\seg_5.mp3 -filter_complex [1:a]aformat=sample_rates=44100:channel_layouts=stereo,adelay=0|0[s0];[2:a]aformat=sample_rates=44100:channel_layouts=stereo,adelay=1200|1200[s1];[3:a]aformat=sample_rates=44100:channel_layouts=stereo,adelay=4000|4000[s2];[4:a]aformat=sample_rates=44100:channel_layouts=stereo,adelay=6200|6200[s3];[5:a]aformat=sample_rates=44100:channel_layouts=stereo,adelay=9000|9000[s4];[6:a]aformat=sample_rates=44100:channel_layouts=stereo,adelay=13700|13700[s5];[0:a]aformat=sample_rates=44100:channel_layouts=stereo,volume=0[bg];[bg][s0][s1][s2][s3][s4][s5]amix=inputs=7:duration=first:dropout_transition=2,volume=7[mixed];[mixed]loudnorm=I=-23:TP=-1.5:LRA=11[out] -map [out] -acodec libmp3lame -ar 44100 -b:a 192k -y C:\Users\fullm\Downloads\dubverse-saas\tmp\uploads\561e7c8d-22c9-42e9-8f14-93bc3e2cdf10\dubbed_audio.mp3
[2026-03-04T04:53:41.275Z] FFmpeg Err: Input #0, mp3, from 'C:\Users\fullm\Downloads\dubverse-saas\tmp\uploads\561e7c8d-22c9-42e9-8f14-93bc3e2cdf10\audio.mp3':
  Metadata:
    major_brand     : mp42
    minor_version   : 0
    compatible_brands: isommp42
    encoder         : Lavf60.16.100
  Duration: 00:00:15.33, start: 0.025057, bitrate: 128 kb/s
  Stream #0:0: Audio: mp3, 44100 Hz, stereo, fltp, 128 kb/s
    Metadata:
      encoder         : Lavc60.31

[2026-03-04T04:53:41.280Z] FFmpeg Err: Input #1, mp3, from 'C:\Users\fullm\Downloads\dubverse-saas\tmp\uploads\561e7c8d-22c9-42e9-8f14-93bc3e2cdf10\segments\seg_0.mp3':
  Metadata:
    encoder         : Lavf60.16.100
  Duration: 00:00:01.23, start: 0.025057, bitrate: 65 kb/s
  Stream #1:0: Audio: mp3, 44100 Hz, mono, fltp, 64 kb/s
Input #2, mp3, from 'C:\Users\fullm\Downloads\dubverse-saas\tmp\uploads\561e7c8d-22c9-42e9-8f14-93bc3e2cdf10\segments\seg_1.mp3':
  Metadata:
    encoder         : Lavf60.16.100
  Duration: 00:00:02.82, start: 0.025057, bitrate: 64 kb/s
  Stream #2:0: Audio: mp3, 44100 Hz, mono, fltp, 64 kb/s
Input #3, mp3, from 'C:\Users\fullm\Downloads\dubverse-saas\tmp\uploads\561e7c8d-22c9-42e9-8f14-93bc3e2cdf10\segments\seg_2.mp3':
  Metadata:
    encoder         : Lavf60.16.100
  Duration: 00:00:02.22, start: 0.025057, bitrate: 64 kb/s
  Stream #3:0: Audio: mp3, 44100 Hz, mono, fltp, 64 kb/s
Input #4, mp3, from 'C:\Users\fullm\Downloads\dubverse-saas\tmp\uploads\561e7c8d-22c9-42e9-8f14-93bc3e2cdf10\segments\seg_3.mp3':
  Metadata:
    encoder         : Lavf60.16.100
  Duration: 00:00:02.77, start: 0.025057, bitrate: 64 kb/s
  Stream #4:0: Audio: mp3, 44100 Hz, mono, fltp, 64 kb/s
Input #5, mp3, from 'C:\Users\fullm\Downloads\dubverse-saas\tmp\uploads\561e7c8d-22c9-42e9-8f14-93bc3e2cdf10\segments\seg_4.mp3':
  Metadata:
    encoder         : Lavf60.16.100
  Duration: 00:00:04.70, start: 0.025057, bitrate: 64 kb/s
  Stream #5:0: Audio: mp3, 44100 Hz, mono, fltp, 64 kb/s
Input #6, mp3, from 'C:\Users\fullm\Downloads\dubverse-saas\tmp\uploads\561e7c8d-22c9-42e9-8f14-93bc3e2cdf10\segments\seg_5.mp3':
  Metadata:
    encoder         : Lavf60.16.100
  Duration: 00:00:01.57, start: 0.025057, bitrate: 65 kb/s
  Stream #6:0: Audio: mp3, 44100 Hz, mono, fltp, 64 kb/s

[2026-03-04T04:53:41.286Z] FFmpeg Err: Stream mapping:
  Stream #0:0 (mp3float) -> aformat:default
  Stream #1:0 (mp3float) -> aformat:default
  Stream #2:0 (mp3float) -> aformat:default
  Stream #3:0 (mp3float) -> aformat:default
  Stream #4:0 (mp3float) -> aformat:default
  Stream #5:0 (mp3float) -> aformat:default
  Stream #6:0 (mp3float) -> aformat:default
  loudnorm:default -> Stream #0:0 (libmp3lame)

[2026-03-04T04:53:41.507Z] FFmpeg Err: Output #0, mp3, to 'C:\Users\fullm\Downloads\dubverse-saas\tmp\uploads\561e7c8d-22c9-42e9-8f14-93bc3e2cdf10\dubbed_audio.mp3':
  Metadata:
    major_brand     : mp42
    minor_version   : 0
    compatible_brands: isommp42
    TSSE            : Lavf60.16.100

[2026-03-04T04:53:41.512Z] FFmpeg Err:   Stream #0:0: Audio: mp3, 44100 Hz, stereo, fltp, 192 kb/s
    Metadata:
      encoder         : Lavc60.31.102 libmp3lame
size=       0kB time=-00:00:00.02 bitrate=  -0.0kbits/s speed=N/A    
[2026-03-04T04:53:41.954Z] FFmpeg Err: size=     111kB time=00:00:04.67 bitrate= 194.3kbits/s speed=6.96x    
[2026-03-04T04:53:42.455Z] FFmpeg Err: size=     235kB time=00:00:09.97 bitrate= 193.1kbits/s speed=8.51x    
[2026-03-04T04:53:42.765Z] FFmpeg Err: [out#0/mp3 @ 000001bcd11c1b00] video:0kB audio:359kB subtitle:0kB other streams:0kB global headers:0kB muxing overhead: 0.207601%
size=     360kB time=00:00:15.38 bitrate= 191.8kbits/s speed=10.4x    

[2026-03-04T04:53:44.884Z] Running FFmpeg: C:\Users\fullm\Downloads\dubverse-saas\backend\node_modules\ffmpeg-static\ffmpeg.exe -i C:\Users\fullm\Downloads\dubverse-saas\tmp\uploads\561e7c8d-22c9-42e9-8f14-93bc3e2cdf10\video.mp4 -i C:\Users\fullm\Downloads\dubverse-saas\tmp\uploads\561e7c8d-22c9-42e9-8f14-93bc3e2cdf10\dubbed_audio.mp3 -map 0:v:0 -map 1:a:0 -c:v copy -c:a aac -b:a 192k -shortest -y C:\Users\fullm\Downloads\dubverse-saas\tmp\uploads\561e7c8d-22c9-42e9-8f14-93bc3e2cdf10\final_dubbed.mp4
[2026-03-04T04:53:44.978Z] FFmpeg Err: Input #0, mov,mp4,m4a,3gp,3g2,mj2, from 'C:\Users\fullm\Downloads\dubverse-saas\tmp\uploads\561e7c8d-22c9-42e9-8f14-93bc3e2cdf10\video.mp4':
  Metadata:
    major_brand     : mp42
    minor_version   : 0
    compatible_brands: isommp42
    creation_time   : 2022-10-02T15:04:51.000000Z
  Duration: 00:00:15.30, start: 0.000000, bitrate: 410 kb/s

[2026-03-04T04:53:44.982Z] FFmpeg Err:   Stream #0:0[0x1](und): Video: h264 (Main) (avc1 / 0x31637661), yuv420p(tv, bt709, progressive), 360x640 [SAR 1:1 DAR 9:16], 278 kb/s, 30 fps, 30 tbr, 15360 tbn (default)
    Metadata:
      creation_time   : 2022-10-02T15:04:51.000000Z
      handler_name    : ISO Media file produced by Google Inc. Created on: 10/02/2022.
      vendor_id       : [0][0][0][0]
  Stream #0:1[0x2](eng): Audio: aac (LC) (mp4a / 0x6134706D), 44100 Hz, stereo, fltp, 127 kb/s (default)
    Metadata:
      creation_time   : 2022-10-02T15:04:51.000000Z
      handler_name    : ISO Media file produced by Google Inc. Created on: 10/02/2022.
      vendor_id       : [0][0][0][0]
Input #1, mp3, from 'C:\Users\fullm\Downloads\dubverse-saas\tmp\uploads\561e7c8d-22c9-42e9-8f14-93bc3e2cdf10\dubbed_audio.mp3':
  Metadata:
    major_brand     : mp42
    minor_version   : 0
    compatible_brands: isommp42
    encoder         : Lavf60.16.100
  Duration: 00:00:15.33, start: 0.025057, bitrate: 192 kb/s
  Stream #1:0: Audio: mp3, 44100 Hz, stereo, fltp, 192 kb/s
    Metadata:
      encoder         : Lavc60.31

[2026-03-04T04:53:44.988Z] FFmpeg Err: Stream mapping:
  Stream #0:0 -> #0:0 (copy)
  Stream #1:0 -> #0:1 (mp3 (mp3float) -> aac (native))

[2026-03-04T04:53:44.994Z] FFmpeg Err: Output #0, mp4, to 'C:\Users\fullm\Downloads\dubverse-saas\tmp\uploads\561e7c8d-22c9-42e9-8f14-93bc3e2cdf10\final_dubbed.mp4':
  Metadata:
    major_brand     : mp42
    minor_version   : 0
    compatible_brands: isommp42
    encoder         : Lavf60.16.100

[2026-03-04T04:53:45.001Z] FFmpeg Err:   Stream #0:0(und): Video: h264 (Main) (avc1 / 0x31637661), yuv420p(tv, bt709, progressive), 360x640 [SAR 1:1 DAR 9:16], q=2-31, 278 kb/s, 30 fps, 30 tbr, 15360 tbn (default)
    Metadata:
      creation_time   : 2022-10-02T15:04:51.000000Z
      handler_name    : ISO Media file produced by Google Inc. Created on: 10/02/2022.
      vendor_id       : [0][0][0][0]
  Stream #0:1: Audio: aac (LC) (mp4a / 0x6134706D), 44100 Hz, stereo, fltp, 192 kb/s
    Metadata:
      encoder         : Lavc60.31.102 aac
size=       0kB time=N/A bitrate=N/A speed=N/A    
[2026-03-04T04:53:45.484Z] FFmpeg Err: size=     512kB time=00:00:08.96 bitrate= 467.8kbits/s speed=17.9x    
[2026-03-04T04:53:45.905Z] FFmpeg Err: [out#0/mp4 @ 000002d6854fbe00] video:520kB audio:360kB subtitle:0kB other streams:0kB global headers:0kB muxing overhead: 1.768142%
size=     896kB time=00:00:15.27 bitrate= 480.5kbits/s speed=16.6x    

[2026-03-04T04:53:45.911Z] FFmpeg Err: [aac @ 000002d683bbe940] Qavg: 7219.585

[2026-03-04T04:53:47.441Z] ✅ Pipeline finished successfully!
